<?xml version="1.0" encoding="utf-8"?>
<!-- Svg Vector Icons : http://www.onlinewebfonts.com/icon -->
<!DOCTYPE svg PUBLIC "-//W3C//DTD SVG 1.1//EN" "http://www.w3.org/Graphics/SVG/1.1/DTD/svg11.dtd">
<svg fill="rgb(204, 204, 204)" version="1.1" xmlns="http://www.w3.org/2000/svg" xmlns:xlink="http://www.w3.org/1999/xlink" x="0px" y="0px" viewBox="0 0 1000 1000" enable-background="new 0 0 1000 1000" xml:space="preserve">
<metadata> Svg Vector Icons : http://www.onlinewebfonts.com/icon </metadata>
<g><path d="M451.6,416.1c14,8.8,30.6,13.9,48.4,14c17.8,0,34.4-5,48.5-13.7l415-256.3c-10.5-7.4-22.4-12.3-34.7-12.3H71.3c-11.5,0-22.4,4.3-32.3,10.7L451.6,416.1z"/><path d="M548.5,485.1c-14,8.8-30.7,13.8-48.5,13.8c-17.8,0-34.4-5.1-48.5-13.9L10,210.2v580.8c0,15.7,6,31.4,17.9,43.3c11.9,11.9,27.6,17.9,43.3,17.9h857.5c15.7,0,31.4-6,43.3-17.9c11.9-11.9,17.9-27.6,17.9-43.3V210.6L548.5,485.1z"/></g>
</svg>