<?xml version="1.0" encoding="utf-8"?>
<!-- Svg Vector Icons : http://www.onlinewebfonts.com/icon -->
<!DOCTYPE svg PUBLIC "-//W3C//DTD SVG 1.1//EN" "http://www.w3.org/Graphics/SVG/1.1/DTD/svg11.dtd">
<svg fill="rgb(204, 204, 204)" version="1.1" xmlns="http://www.w3.org/2000/svg" xmlns:xlink="http://www.w3.org/1999/xlink" x="0px" y="0px" viewBox="0 0 1000 1000" enable-background="new 0 0 1000 1000" xml:space="preserve">
<metadata> Svg Vector Icons : http://www.onlinewebfonts.com/icon </metadata>
<g><path d="M159,62.6l177.4,174.9l-80,75C184,385,259,472.5,289,512.5c50,60,112.5,125,177.4,177.4c65,55,110,90,157.5,90c35,0,57.5-22.5,65-30l72.5-75l169.9,169.9l-80,75c-5,5-32.5,22.5-87.5,22.5c-75,0-237.4-35-467.4-267.4C-28.4,335.1,71.5,157.6,81.5,140.1L159,62.6 M159,7.7c-10,0-17.5,5-27.5,12.5L44,107.6c-35,45-115,254.9,222.4,602.3c222.4,224.9,394.9,282.4,502.3,282.4c67.5,0,107.5-20,122.5-35l87.5-85c15-15,15-40,0-55L791.3,630c-5-5-17.5-12.5-27.5-12.5c-10,0-17.5,2.5-27.5,12.5l-82.5,85c-10,10-17.5,15-30,15c-30,0-70-30-127.5-77.5c-55-45-117.5-105-172.4-172.4c-40-47.5-72.5-97.5-35-132.5l87.5-85c15-15,15-40,0-55L189,20.1C176.5,12.6,166.5,7.7,159,7.7L159,7.7z"/></g>
</svg>